<svg width="24" height="24" viewBox="0 0 24 24" fill="none" xmlns="http://www.w3.org/2000/svg">
<g id="vuesax/bulk/arrow-right" opacity="0.8">
<path d="M7.99992 14.6663C11.6818 14.6663 14.6666 11.6816 14.6666 7.99967C14.6666 4.31778 11.6818 1.33301 7.99992 1.33301C4.31802 1.33301 1.33325 4.31778 1.33325 7.99967C1.33325 11.6816 4.31802 14.6663 7.99992 14.6663Z" fill="#1C0404"/>
<path d="M10.6867 7.64695L8.68675 5.64695C8.49341 5.45362 8.17341 5.45362 7.98008 5.64695C7.78675 5.84029 7.78675 6.16029 7.98008 6.35362L9.12675 7.50029H5.66675C5.39341 7.50029 5.16675 7.72695 5.16675 8.00029C5.16675 8.27362 5.39341 8.50029 5.66675 8.50029H9.12675L7.98008 9.64695C7.78675 9.84029 7.78675 10.1603 7.98008 10.3536C8.08008 10.4536 8.20675 10.5003 8.33341 10.5003C8.46008 10.5003 8.58675 10.4536 8.68675 10.3536L10.6867 8.35362C10.8801 8.16029 10.8801 7.84029 10.6867 7.64695Z" fill="#FAFAFA"/>
</g>
</svg>
