<svg width="40" height="40" viewBox="0 0 40 40" fill="none" xmlns="http://www.w3.org/2000/svg">
<path d="M9.99984 21.667C5.39984 21.667 1.6665 25.3837 1.6665 30.0003C1.6665 34.617 5.39984 38.3337 9.99984 38.3337C14.5998 38.3337 18.3332 34.6003 18.3332 30.0003C18.3332 25.4003 14.6165 21.667 9.99984 21.667ZM6.59982 26.6003H9.99984C10.6332 26.6003 11.1332 27.117 11.1332 27.7337C11.1332 28.3503 10.6165 28.867 9.99984 28.867H6.59982C5.96649 28.867 5.4665 28.3503 5.4665 27.7337C5.4665 27.117 5.96649 26.6003 6.59982 26.6003ZM13.3999 33.4003H6.58319C5.94986 33.4003 5.44982 32.8837 5.44982 32.267C5.44982 31.6503 5.96652 31.1336 6.58319 31.1336H13.3999C14.0332 31.1336 14.5332 31.6503 14.5332 32.267C14.5332 32.8837 14.0332 33.4003 13.3999 33.4003Z" fill="#0075FF"/>
<path opacity="0.4" d="M28.3335 5H11.6668C6.66683 5 3.3335 7.5 3.3335 13.3333V18.5667C3.3335 19.7833 4.58352 20.55 5.70019 20.0667C7.53352 19.2667 9.61681 18.9667 11.8001 19.3167C16.1668 20.0333 19.7335 23.4833 20.6168 27.8167C20.8668 29.0833 20.9002 30.3167 20.7335 31.5C20.6002 32.4833 21.4002 33.35 22.3835 33.35H28.3335C33.3335 33.35 36.6668 30.85 36.6668 25.0167V13.35C36.6668 7.49999 33.3335 5 28.3335 5Z" fill="#0075FF"/>
<path d="M19.9995 19.783C18.5995 19.783 17.1828 19.3496 16.0995 18.4663L10.8828 14.2996C10.3495 13.8663 10.2495 13.083 10.6828 12.5496C11.1161 12.0163 11.8995 11.9163 12.4328 12.3496L17.6495 16.5163C18.9161 17.533 21.0661 17.533 22.3328 16.5163L27.5495 12.3496C28.0828 11.9163 28.8828 11.9996 29.2994 12.5496C29.7328 13.083 29.6495 13.883 29.0995 14.2996L23.8828 18.4663C22.8161 19.3496 21.3995 19.783 19.9995 19.783Z" fill="#0075FF"/>
</svg>
