<svg width="1440" height="1691" viewBox="0 0 1440 1691" fill="none" xmlns="http://www.w3.org/2000/svg">
<path d="M894.935 790C894.935 886.614 816.614 964.935 720 964.935C623.386 964.935 545.065 886.614 545.065 790C545.065 693.386 623.386 615.065 720 615.065C816.614 615.065 894.935 693.386 894.935 790Z" stroke="#7B7B7B" stroke-opacity="0.13" stroke-width="2"/>
<circle cx="720" cy="790" r="306.442" stroke="#7B7B7B" stroke-opacity="0.13" stroke-width="2"/>
<circle cx="720" cy="790" r="420.177" stroke="#7B7B7B" stroke-opacity="0.13" stroke-width="2"/>
<circle cx="720" cy="790" r="565.901" stroke="#7B7B7B" stroke-opacity="0.13" stroke-width="2"/>
<path d="M1428.07 790C1428.07 1181.06 1111.06 1498.07 720 1498.07C328.943 1498.07 11.9291 1181.06 11.9291 790C11.9291 398.943 328.943 81.9287 720 81.9287C1111.06 81.9287 1428.07 398.943 1428.07 790Z" stroke="#7B7B7B" stroke-opacity="0.13" stroke-width="2"/>
<circle cx="720" cy="790" r="900" stroke="#7B7B7B" stroke-opacity="0.13" stroke-width="2"/>
</svg>
