<svg width="165" height="213" viewBox="0 0 165 213" fill="none" xmlns="http://www.w3.org/2000/svg">
<g id="Group 590">
<circle id="Ellipse 110" cx="82.5" cy="82.5" r="82.5" fill="#E98085" fill-opacity="0.25"/>
<g id="Group 23">
<rect id="Rectangle 34" x="49.9635" y="80.6262" width="81.1377" height="113.445" rx="6.78727" transform="rotate(2.5 49.9635 80.6262)" fill="#EEEEEE" stroke="#999999" stroke-width="1.93922"/>
<rect id="Rectangle 23" x="2.32814" y="74.2141" width="85.0161" height="117.324" rx="8.72649" transform="rotate(-7.5 2.32814 74.2141)" fill="#FAFAFA" stroke="#999999" stroke-width="1.93922"/>
<path id="Rectangle 24" d="M4.42849 82.7384C3.86932 78.491 6.85918 74.5946 11.1065 74.0354L78.0917 65.2166C82.339 64.6574 86.2355 67.6473 86.7947 71.8947L89.2462 90.5156L6.87998 101.359L4.42849 82.7384Z" fill="#EEEEEE"/>
<rect id="Rectangle 25" x="103.697" y="67.665" width="3.46154" height="11.5385" rx="1.73077" transform="rotate(82.5 103.697 67.665)" fill="#FF0000"/>
<rect id="Rectangle 26" x="72.083" y="48.5508" width="3.46154" height="11.5385" rx="1.73077" transform="rotate(-7.5 72.083 48.5508)" fill="#FF0000"/>
<rect id="Rectangle 27" x="92.3657" y="51.7002" width="3.46154" height="11.5385" rx="1.73077" transform="rotate(37.5 92.3657 51.7002)" fill="#FF0000"/>
<rect id="Rectangle 28" x="15.4912" y="104.882" width="66.9231" height="4.61538" rx="1.93922" transform="rotate(-7.5 15.4912 104.882)" fill="#FBFBFB"/>
<rect id="Rectangle 30" x="18.5015" y="127.761" width="66.9231" height="4.61538" rx="1.93922" transform="rotate(-7.5 18.5015 127.761)" fill="#FBFBFB"/>
<rect id="Rectangle 32" x="21.5166" y="150.641" width="66.9231" height="4.61538" rx="1.93922" transform="rotate(-7.5 21.5166 150.641)" fill="#FBFBFB"/>
<rect id="Rectangle 29" x="16.6938" y="114.033" width="24.2308" height="4.61538" rx="1.93922" transform="rotate(-7.5 16.6938 114.033)" fill="#EEEEEE"/>
<rect id="Rectangle 31" x="19.71" y="136.913" width="24.2308" height="4.61538" rx="1.93922" transform="rotate(-7.5 19.71 136.913)" fill="#EEEEEE"/>
<rect id="Rectangle 33" x="22.7202" y="159.792" width="24.2308" height="4.61538" rx="1.93922" transform="rotate(-7.5 22.7202 159.792)" fill="#EEEEEE"/>
</g>
</g>
</svg>
