<svg width="24" height="24" viewBox="0 0 24 24" fill="none" xmlns="http://www.w3.org/2000/svg">
<path d="M9.00135 21.0001C10.657 21.0001 12.0008 19.6561 12.0008 18.0001V15H9.00135C7.34568 15 6.00195 16.344 6.00195 18.0001C6.00195 19.6561 7.34568 21.0001 9.00135 21.0001Z" stroke="white" stroke-width="1.6"/>
<path d="M6.00195 12C6.00195 10.344 7.34568 9 9.00135 9H12.0008V14.9999H9.00135C7.34568 14.9999 6.00195 13.6559 6.00195 12Z" stroke="white" stroke-width="1.6"/>
<path d="M6.00146 6C6.00146 4.344 7.3452 3 9.00086 3H12.0003V9H9.00086C7.3452 9 6.00146 7.656 6.00146 6Z" stroke="white" stroke-width="1.6"/>
<path d="M12.001 3H15.0004C16.6561 3 17.9998 4.344 17.9998 6C17.9998 7.656 16.6561 9 15.0004 9H12.001V3Z" stroke="white" stroke-width="1.6"/>
<path d="M17.9998 12C17.9998 13.6559 16.6561 14.9999 15.0004 14.9999C13.3447 14.9999 12.001 13.6559 12.001 12C12.001 10.344 13.3447 9 15.0004 9C16.6561 9 17.9998 10.344 17.9998 12Z" stroke="white" stroke-width="1.6"/>
</svg>
