<svg width="1202" height="390" viewBox="0 0 1202 390" fill="none" xmlns="http://www.w3.org/2000/svg">
<g clip-path="url(#clip0_3259_319)">
<g clip-path="url(#clip1_3259_319)">
<path d="M-449 -884.295L-449 1275.71M-385 -884.295L-385 1275.71M-321 -884.295V1275.71M-257 -884.295V1275.71M-193 -884.295V1275.71M-129 -884.295V1275.71M-65 -884.295V1275.71M-1 -884.295V1275.71M63 -884.295V1275.71M127 -884.295V1275.71M191 -884.295V1275.71M255 -884.295V1275.71M319 -884.295V1275.71M383 -884.295V1275.71M447 -884.295V1275.71M511 -884.295V1275.71M575 -884.295V1275.71M639 -884.295V1275.71M703 -884.295V1275.71M767 -884.295V1275.71M831 -884.295V1275.71M895 -884.295V1275.71M959 -884.295V1275.71M1023 -884.295V1275.71M1087 -884.295V1275.71M1151 -884.295V1275.71M1215 -884.295V1275.71M1279 -884.295V1275.71M1343 -884.295V1275.71M1407 -884.295V1275.71M1471 -884.295V1275.71M1535 -884.295V1275.71M1599 -884.295V1275.71M1663 -884.295V1275.71M1727 -884.295V1275.71M-442 1282.71H1718M-442 1218.71H1718M-442 1154.71H1718M-442 1090.71H1718M-442 1026.71H1718M-442 962.705H1718M-442 898.705H1718M-442 834.705H1718M-442 770.705H1718M-442 706.705H1718M-442 642.705H1718M-442 578.705H1718M-442 514.705H1718M-442 450.705H1718M-442 386.705H1718M-442 322.705H1718M-442 258.705H1718M-442 194.705H1718M-442 130.705H1718M-442 66.7051H1718M-442 2.70508H1718M-442 -61.2949H1718M-442 -125.295H1718M-442 -189.295H1718M-442 -253.295H1718M-442 -317.295H1718M-442 -381.295H1718M-442 -445.295H1718M-442 -509.295H1718M-442 -573.295H1718M-442 -637.295H1718M-442 -701.295H1718M-442 -765.295H1718M-442 -829.295L1718 -829.295M-442 -893.295L1718 -893.295" stroke="#282828"/>
</g>
</g>
<defs>
<clipPath id="clip0_3259_319">
<rect width="1278" height="390" fill="white"/>
</clipPath>
<clipPath id="clip1_3259_319">
<rect width="2178" height="2178" fill="white" transform="translate(-450 -894.295)"/>
</clipPath>
</defs>
</svg>
