<svg width="40" height="40" viewBox="0 0 40 40" fill="none" xmlns="http://www.w3.org/2000/svg">
<path opacity="0.4" d="M28.3335 14.9997C28.3335 21.4497 22.7335 26.6663 15.8335 26.6663L14.2835 28.533L13.3668 29.6331C12.5835 30.5664 11.0835 30.3663 10.5668 29.2497L8.3335 24.333C5.30016 22.1996 3.3335 18.8163 3.3335 14.9997C3.3335 8.54967 8.9335 3.33301 15.8335 3.33301C20.8668 3.33301 25.2168 6.11635 27.1668 10.1164C27.9168 11.5997 28.3335 13.2497 28.3335 14.9997Z" fill="#E4B200"/>
<path d="M36.6665 21.4328C36.6665 25.2495 34.6999 28.6329 31.6665 30.7662L29.4332 35.6828C28.9165 36.7995 27.4165 37.0162 26.6332 36.0662L24.1665 33.0995C20.1332 33.0995 16.5332 31.3162 14.2832 28.5329L15.8332 26.6662C22.7332 26.6662 28.3332 21.4495 28.3332 14.9995C28.3332 13.2495 27.9165 11.5995 27.1665 10.1162C32.6165 11.3662 36.6665 15.9662 36.6665 21.4328Z" fill="#E4B200"/>
<path d="M19.9998 16.25H11.6665C10.9832 16.25 10.4165 15.6833 10.4165 15C10.4165 14.3167 10.9832 13.75 11.6665 13.75H19.9998C20.6832 13.75 21.2498 14.3167 21.2498 15C21.2498 15.6833 20.6832 16.25 19.9998 16.25Z" fill="#E4B200"/>
</svg>
