<svg width="32" height="33" viewBox="0 0 32 33" fill="none" xmlns="http://www.w3.org/2000/svg">
<g id="SVG">
<path id="Vector" d="M25.3336 16.2568V16.9234C25.3336 17.2916 25.0352 17.5901 24.667 17.5901H17.0003V25.2568C17.0003 25.6249 16.7018 25.9234 16.3336 25.9234H15.667C15.2988 25.9234 15.0003 25.6249 15.0003 25.2568V17.5901H7.33366C6.96547 17.5901 6.66699 17.2916 6.66699 16.9234V16.2568C6.66699 15.8886 6.96547 15.5901 7.33366 15.5901H15.0003V7.9235C15.0003 7.55531 15.2988 7.25684 15.667 7.25684H16.3336C16.7018 7.25684 17.0003 7.55531 17.0003 7.9235V15.5901H24.667C25.0352 15.5901 25.3336 15.8886 25.3336 16.2568Z" fill="#D8D5D1"/>
</g>
</svg>
