<svg width="348" height="277" viewBox="0 0 348 277" fill="none" xmlns="http://www.w3.org/2000/svg">
<path d="M275.266 140.099L275.306 139.604L274.812 139.56L274.201 139.507L273.7 139.463L273.659 139.965C271.679 164.445 261.463 187.41 244.815 204.816C228.168 222.221 206.157 232.95 182.661 235.119L182.166 235.165L182.208 235.659L182.262 236.294L182.305 236.796L182.807 236.75C206.692 234.545 229.06 223.639 245.972 205.957C262.884 188.276 273.256 164.953 275.266 140.099ZM165.524 236.812L166.026 236.855L166.065 236.353L166.115 235.718L166.154 235.223L165.659 235.181C148.204 233.697 131.426 227.477 116.997 217.138C102.569 206.799 90.9948 192.702 83.4305 176.251L83.215 175.783L82.7533 176.013L82.2008 176.288L81.767 176.504L81.9695 176.944C89.651 193.65 101.407 207.971 116.068 218.476C130.728 228.982 147.781 235.305 165.524 236.812ZM75.9759 160.543L76.1122 161.035L76.6014 160.889L77.1899 160.712L77.6588 160.572L77.5282 160.1C76.0471 154.75 74.9798 149.285 74.3366 143.757L74.2782 143.256L73.7774 143.319L73.1694 143.396L72.678 143.458L72.7353 143.95C73.3884 149.562 74.472 155.111 75.9759 160.543Z" fill="#8D9091" stroke="#395051"/>
<path d="M275.266 121.185L275.307 121.68L274.811 121.723L274.201 121.776L273.7 121.82L273.659 121.319C271.68 97.0671 261.464 74.316 244.817 57.0722C228.17 39.8287 206.158 29.1984 182.661 27.0496L182.166 27.0043L182.208 26.5088L182.262 25.8797L182.305 25.3789L182.806 25.4247C206.69 27.6088 229.058 38.4136 245.97 55.9321C262.883 73.4502 273.256 96.558 275.266 121.185ZM165.525 25.3626L166.026 25.3204L166.065 25.8213L166.115 26.4508L166.154 26.9468L165.659 26.9885C148.202 28.4582 131.424 34.6211 116.996 44.8643C102.567 55.1077 90.9935 69.0737 83.4297 85.3711L83.2142 85.8356L82.7549 85.609L82.2025 85.3364L81.7647 85.1203L81.9702 84.6775C89.6523 68.1252 101.409 53.9369 116.069 43.5287C130.73 33.1205 147.782 26.8564 165.525 25.3626ZM75.9762 100.928L76.113 100.438L76.6002 100.583L77.1887 100.758L77.6602 100.898L77.5279 101.372C76.0469 106.672 74.9797 112.086 74.3365 117.562L74.2778 118.062L73.778 117.999L73.17 117.923L72.6774 117.862L72.7353 117.369C73.3885 111.808 74.4722 106.31 75.9762 100.928Z" fill="#8D9091" stroke="#395051"/>
<path d="M340.026 86.3584L339.882 85.8715L339.398 86.0227L338.827 86.2007L338.357 86.3474L338.496 86.8196C346.077 112.5 347.868 139.618 343.735 166.116C339.602 192.615 329.652 217.796 314.642 239.752L314.367 240.154L314.762 240.439L315.25 240.792L315.666 241.092L315.956 240.669C331.103 218.513 341.142 193.104 345.312 166.367C349.483 139.631 347.675 112.27 340.026 86.3584ZM308.514 250.77L308.817 250.389L308.444 250.076L307.981 249.689L307.587 249.359L307.268 249.762C300.042 258.879 291.949 267.232 283.109 274.696L282.738 275.01L283.041 275.39L283.42 275.864L283.741 276.265L284.133 275.934C293.055 268.4 301.222 259.971 308.514 250.77ZM63.7937 275.872L64.186 276.203L64.5069 275.802L64.8858 275.329L65.1898 274.949L64.8182 274.634C55.9824 267.165 47.8938 258.808 40.6727 249.687L40.3538 249.284L39.9599 249.614L39.4971 250.001L39.1238 250.313L39.4259 250.695C46.7131 259.899 54.8762 268.334 63.7937 275.872ZM30.6459 238.592L30.9294 239.02L31.3495 238.725L31.8424 238.38L32.2415 238.1L31.9721 237.694C17.5636 215.971 8.0513 191.216 4.12946 165.233C0.207622 139.251 1.97517 112.696 9.3031 87.5046L9.44066 87.0317L8.9699 86.887L8.39833 86.7113L7.91311 86.5622L7.77133 87.0496C0.377437 112.467 -1.4059 139.261 2.55114 165.477C6.50818 191.692 16.106 216.671 30.6459 238.592Z" fill="#8D9091" stroke="#395051"/>
<path d="M339.547 189.943C347.174 163.981 348.977 136.566 344.818 109.777C340.659 82.9877 330.647 57.5287 315.543 35.3308L315.055 35.6851C330.107 57.8064 340.084 83.1776 344.229 109.874C348.374 136.571 346.577 163.892 338.976 189.764L339.547 189.943Z" fill="#8D9091"/>
<path d="M308.122 25.2104C300.851 15.9924 292.707 7.54712 283.811 6.10352e-05L283.432 0.476166C292.297 7.99719 300.413 16.4134 307.66 25.5995L308.122 25.2104Z" fill="#8D9091"/>
<path d="M64.1164 0.0619354C55.2245 7.614 47.0846 16.0639 39.8179 25.2859L40.2807 25.6748C47.5223 16.4846 55.6341 8.06384 64.4954 0.537827L64.1164 0.0619354Z" fill="#8D9091"/>
<path d="M31.0625 37.4116C16.5633 59.3743 6.99178 84.4016 3.04554 110.669C-0.900705 136.937 0.8778 163.783 8.25142 189.251L8.823 189.074C1.4748 163.694 -0.29757 136.941 3.63506 110.764C7.5677 84.5867 17.1062 59.6457 31.5554 37.7587L31.0625 37.4116Z" fill="#8D9091"/>
</svg>
